<?xml version="1.0" encoding="UTF-8"?>
<svg width="90px" height="37px" viewBox="0 0 90 37" version="1.1" xmlns="http://www.w3.org/2000/svg" xmlns:xlink="http://www.w3.org/1999/xlink">
    <!-- Generator: Sketch 52.1 (67048) - http://www.bohemiancoding.com/sketch -->
    <title>Combined Shape Copy 2</title>
    <desc>Created with Sketch.</desc>
    <defs>
        <linearGradient x1="0%" y1="0%" x2="101.999998%" y2="100.999999%" id="linearGradient-1">
            <stop stop-color="#FFCD2C" offset="0%"></stop>
            <stop stop-color="#FF0663" offset="100%"></stop>
        </linearGradient>
    </defs>
    <g id="Page-1" stroke="none" stroke-width="1" fill="none" fill-rule="evenodd">
        <g id="Desktop-HD-Copy-2" transform="translate(-210.000000, -35.000000)" fill="url(#linearGradient-1)">
            <path d="M231.829026,61.3533835 C231.829026,64.7218214 230.852395,67.3383365 228.899105,69.2030075 C226.945815,71.0676785 224.284311,72 220.914513,72 C216.530793,72 212.892659,70.3007689 210,66.9022556 L213.757455,61.2631579 C214.860841,62.4060208 215.99403,63.2857112 217.157058,63.9022556 C218.320085,64.5188001 219.378723,64.8270677 220.333002,64.8270677 C221.346924,64.8270677 222.144629,64.5112814 222.726143,63.8796992 C223.307657,63.2481171 223.59841,62.3458705 223.59841,61.1729323 L223.59841,54.2804838 L212.862823,54.2804838 L212.862823,47.4684537 L231.829026,47.4684537 L231.829026,61.3533835 Z M226.875486,36 C228.098156,36 229.104608,36.3984923 229.89487,37.1954887 C230.685132,37.9924852 231.080258,39.0225501 231.080258,40.2857143 C231.080258,41.5188032 230.685132,42.5413493 229.89487,43.3533835 C229.104608,44.1654176 228.098156,44.5714286 226.875486,44.5714286 C225.652816,44.5714286 224.646365,44.1654176 223.856103,43.3533835 C223.06584,42.5413493 222.670715,41.5188032 222.670715,40.2857143 C222.670715,39.0225501 223.06584,37.9924852 223.856103,37.1954887 C224.646365,36.3984923 225.652816,36 226.875486,36 Z M248.111332,47.2330827 L256.297217,47.2330827 L261.351889,64.1954887 L266.451292,47.2330827 L274.413519,47.2330827 L265.333002,71.6390977 L257.147117,71.6390977 L248.111332,47.2330827 Z M287.743539,46.962406 C291.67994,46.962406 294.706749,48.1353266 296.824056,50.481203 C298.941362,52.8270794 300,56.0450923 300,60.1353383 C300,60.7669205 299.98509,61.2481186 299.955268,61.5789474 L283.136183,61.5789474 C283.523859,62.9624129 284.194826,64.0225527 285.149105,64.7593985 C286.103384,65.4962443 287.266395,65.8646617 288.638171,65.8646617 C289.681914,65.8646617 290.688365,65.6541374 291.657555,65.2330827 C292.626744,64.812028 293.513912,64.1954928 294.319085,63.3834586 L298.479125,67.5789474 C297.226634,68.9924883 295.71323,70.0676655 293.938867,70.8045113 C292.164504,71.5413571 290.159057,71.9097744 287.922465,71.9097744 C285.328019,71.9097744 283.06164,71.3985014 281.12326,70.3759398 C279.184881,69.3533783 277.701297,67.9097838 276.672465,66.0451128 C275.643633,64.1804418 275.129225,62.0150499 275.129225,59.5488722 C275.129225,57.0526191 275.651088,54.8496336 276.694831,52.9398496 C277.738574,51.0300656 279.214702,49.5563962 281.12326,48.518797 C283.031819,47.4811978 285.238556,46.962406 287.743539,46.962406 Z M292.261431,57.2932331 C292.261431,55.8796922 291.851396,54.7443652 291.031312,53.887218 C290.211229,53.0300709 289.130225,52.6015038 287.78827,52.6015038 C286.535779,52.6015038 285.484597,53.0225522 284.634692,53.8646617 C283.784787,54.7067711 283.225647,55.8496168 282.957256,57.2932331 L292.261431,57.2932331 Z M236,47 L246,47 L246,71 L237.971998,71 L237.971998,53.8337218 L236,53.8337218 L236,47 Z M241.5,35 C242.808517,35 243.885634,35.4184169 244.731383,36.2552632 C245.577132,37.0921094 246,38.1736776 246,39.5 C246,40.7947433 245.577132,41.8684168 244.731383,42.7210526 C243.885634,43.5736885 242.808517,44 241.5,44 C240.191483,44 239.114366,43.5736885 238.268617,42.7210526 C237.422868,41.8684168 237,40.7947433 237,39.5 C237,38.1736776 237.422868,37.0921094 238.268617,36.2552632 C239.114366,35.4184169 240.191483,35 241.5,35 Z" id="Combined-Shape-Copy-2"></path>
        </g>
    </g>
</svg>